<svg width="228" height="64" viewBox="0 0 228 64" fill="none" xmlns="http://www.w3.org/2000/svg">
<g clip-path="url(#clip0_287_7438)">
<path d="M114.418 26.1692C104.162 26.1692 99.52 18.9759 98.9707 18.0625C94.0726 10.9598 97.8722 1.53983 98.0378 1.14733C98.429 0.203825 99.5125 -0.241511 100.445 0.14344C101.386 0.535939 101.837 1.61531 101.446 2.55882C101.386 2.70223 98.2635 10.59 102.033 15.9944L102.123 16.1378C102.274 16.3944 106.021 22.6669 114.794 22.4555C115.847 22.4555 116.652 23.2481 116.675 24.267C116.697 25.286 115.885 26.139 114.869 26.1541C114.711 26.1541 114.56 26.1541 114.41 26.1541L114.418 26.1692Z" fill="#991005"/>
<path d="M115.546 20.2515C108.15 20.2515 104.358 15.0962 104.162 14.832C103.568 14.0017 103.756 12.8469 104.584 12.2506C105.411 11.6543 106.555 11.843 107.157 12.6657C107.337 12.9148 111.491 18.3645 119.842 15.8737C120.196 15.7831 126.448 14.1301 129.42 6.1895C129.782 5.23089 130.842 4.74782 131.798 5.11012C132.754 5.47243 133.235 6.53671 132.874 7.49531C129.187 17.3531 121.136 19.376 120.798 19.459C118.887 20.0326 117.134 20.2666 115.554 20.2666L115.546 20.2515Z" fill="#CB0B0F"/>
<path d="M0 45.145H1.86595L4.99594 56.7162L8.1786 45.145H9.83388L13.0165 56.7162L16.1465 45.145H17.9899L14.1978 58.958H11.8578L8.99119 48.602L6.12454 58.958H3.80715L0 45.145Z" fill="#CB0B0F"/>
<path d="M20.7662 39.8613H23.0315V42.1861H20.7662V39.8613ZM20.9243 45.145H22.8735V58.9579H20.9243V45.145Z" fill="#CB0B0F"/>
<path d="M27.4551 39.8613H29.3742V58.9579H27.4551V39.8613Z" fill="#CB0B0F"/>
<path d="M33.8505 39.8613H35.7465V47.1754C37.2438 45.6205 38.6433 44.9034 40.4039 44.9034C42.7739 44.9034 44.1132 46.2772 44.1132 48.7303V58.9504H42.2473V49.4398C42.2473 47.4622 41.6453 46.564 39.9073 46.564C38.4326 46.564 37.0632 47.2509 35.7465 48.6472V58.9504H33.8505V39.8538V39.8613Z" fill="#CB0B0F"/>
<path d="M58.1982 55.9461C57.1222 58.1653 55.3315 59.1918 52.6981 59.1918C49.1468 59.1918 47.168 56.7387 47.168 52.0362C47.168 47.3338 49.2747 44.9033 52.5401 44.9033C55.8055 44.9033 57.9123 47.3866 57.9123 51.8475V52.4287H49.1468V52.8816C49.1468 55.8103 50.6742 57.5539 52.8862 57.5539C54.5942 57.5539 55.9936 56.6858 56.8062 55.0706L58.1982 55.9461ZM55.8808 50.7984C55.8281 48.0811 54.5114 46.5488 52.5627 46.5488C50.614 46.5488 49.2747 48.0509 49.1694 50.7984H55.8808Z" fill="#CB0B0F"/>
<path d="M61.1176 39.8613H63.0366V58.9579H61.1176V39.8613Z" fill="#CB0B0F"/>
<path d="M67.4602 45.1449H69.2208V47.2281C70.6955 45.643 72.0122 44.9033 73.7202 44.9033C75.5636 44.9033 76.5868 45.8544 77.0383 47.2281C78.513 45.643 79.8823 44.9033 81.5903 44.9033C83.8249 44.9033 85.119 46.2771 85.119 48.7302V58.9503H83.223V49.334C83.223 47.4319 82.6436 46.5639 81.0636 46.5639C79.6717 46.5639 78.4302 47.2508 77.1963 48.6472V58.9503H75.383V49.3869C75.383 47.4621 74.7811 46.5639 73.201 46.5639C71.779 46.5639 70.6203 47.2508 69.3563 48.6472V58.9503H67.4602V45.1373V45.1449Z" fill="#CB0B0F"/>
<path d="M87.4365 45.145H89.3852L93.388 56.1803L96.9694 45.145H98.9182L94.2081 59.192C93.1322 62.3848 92.1014 64.0001 89.2047 64.0001C88.7833 64.0001 88.362 63.9472 87.9933 63.8416V62.0753C88.4673 62.181 88.836 62.2036 89.0692 62.2036C90.9879 62.2036 91.8305 61.2299 92.3873 58.7164L87.4365 45.145Z" fill="#CB0B0F"/>
<path d="M99.7834 51.1606H106.209V52.9269H99.7834V51.1606Z" fill="#CB0B0F"/>
<path d="M107.97 45.145H109.836L112.965 56.7162L116.148 45.145H117.803L120.986 56.7162L124.116 45.145H125.959L122.167 58.958H119.827L116.961 48.602L114.094 58.958H111.777L107.962 45.145H107.97Z" fill="#CB0B0F"/>
<path d="M138.532 58.9504H136.794V56.8672C135.319 58.4221 133.875 59.192 132.212 59.192C129.947 59.192 128.63 57.8182 128.63 55.3651V45.145H130.527V54.6556C130.527 56.6332 131.106 57.5314 132.739 57.5314C134.108 57.5314 135.372 56.8445 136.636 55.4481V45.145H138.532V58.958V58.9504Z" fill="#CB0B0F"/>
<path d="M142.873 45.1449H144.634V47.2281C146.109 45.6732 147.531 44.9033 149.186 44.9033C151.451 44.9033 152.767 46.2771 152.767 48.7302V58.9503H150.902V49.4397C150.902 47.4621 150.322 46.5639 148.689 46.5639C147.32 46.5639 146.033 47.2508 144.769 48.6472V58.9503H142.873V45.1373V45.1449Z" fill="#CB0B0F"/>
<path d="M166.83 54.648C166.83 56.0745 166.83 57.5011 167.018 58.9503H165.543L165.092 57.2068C164.069 58.5805 162.932 59.1617 161.247 59.1617C157.876 59.1617 155.822 56.5727 155.822 51.9759C155.822 47.3792 157.846 44.8959 161.352 44.8959C162.985 44.8959 164.166 45.4997 164.934 46.7225V39.8538H166.83V54.6404V54.648ZM161.352 46.4885C159.17 46.4885 157.801 48.3604 157.801 51.8476C157.801 55.6519 159.035 57.554 161.563 57.554C162.932 57.554 164.091 56.8671 164.934 55.4933V48.602C163.963 47.1754 162.827 46.4885 161.352 46.4885Z" fill="#CB0B0F"/>
<path d="M181.013 55.9461C179.937 58.1653 178.146 59.1918 175.513 59.1918C171.961 59.1918 169.982 56.7387 169.982 52.0362C169.982 47.3338 172.089 44.9033 175.355 44.9033C178.62 44.9033 180.727 47.3866 180.727 51.8475V52.4287H171.961V52.8816C171.961 55.8103 173.489 57.5539 175.701 57.5539C177.409 57.5539 178.808 56.6858 179.621 55.0706L181.013 55.9461ZM178.695 50.7984C178.643 48.0811 177.326 46.5488 175.377 46.5488C173.428 46.5488 172.089 48.0509 171.984 50.7984H178.695Z" fill="#CB0B0F"/>
<path d="M183.804 45.1448H185.753V48.2848C186.671 46.0657 187.912 44.9863 189.725 44.9863C189.883 44.9863 190.011 44.9863 190.169 45.0165V46.9186H189.936C188.07 46.9186 186.595 48.4282 185.753 51.2739V58.9578H183.804V45.1448Z" fill="#CB0B0F"/>
<path d="M192.464 39.8613H194.383V58.9579H192.464V39.8613Z" fill="#CB0B0F"/>
<path d="M198.829 39.8613H201.095V42.1861H198.829V39.8613ZM198.988 45.145H200.937V58.9579H198.988V45.145Z" fill="#CB0B0F"/>
<path d="M209.732 59.192C206.15 59.192 204.202 56.7087 204.202 52.0364C204.202 47.3642 206.308 44.8809 209.732 44.8809C212.102 44.8809 213.892 46.2244 214.705 48.6021L212.809 49.2059C212.26 47.4623 211.101 46.5414 209.679 46.5414C207.444 46.5414 206.15 48.4134 206.15 52.0364C206.15 55.6595 207.414 57.5541 209.784 57.5541C211.206 57.5541 212.523 56.603 213.366 54.7839L214.968 55.6293C213.84 58.0296 212.102 59.192 209.732 59.192Z" fill="#CB0B0F"/>
<path d="M217.73 39.8613H219.626V47.1754C221.123 45.6205 222.523 44.9034 224.283 44.9034C226.653 44.9034 227.992 46.2772 227.992 48.7303V58.9504H226.127V49.4398C226.127 47.4622 225.525 46.564 223.787 46.564C222.312 46.564 220.942 47.2509 219.626 48.6472V58.9504H217.73V39.8538V39.8613Z" fill="#CB0B0F"/>
</g>
<defs>
<clipPath id="clip0_287_7438">
<rect width="228" height="64" fill="white"/>
</clipPath>
</defs>
</svg>
