<?xml version="1.0" encoding="utf-8"?>
<!-- Generator: Adobe Illustrator 26.5.0, SVG Export Plug-In . SVG Version: 6.00 Build 0)  -->
<svg version="1.1" id="Layer_1" xmlns="http://www.w3.org/2000/svg" xmlns:xlink="http://www.w3.org/1999/xlink" x="0px" y="0px"
	 viewBox="0 0 1024 1024" style="enable-background:new 0 0 1024 1024;" xml:space="preserve">
<style type="text/css">
	.st0{fill:#FFFFFF;}
	.st1{fill:#991005;}
	.st2{fill:#CB0B0F;}
</style>
<rect class="st0" width="1024" height="1024"/>
<path class="st1" d="M504.4,823c-243.8,0-354.1-171-367.2-192.7c-116.4-168.8-26.1-392.7-22.2-402.1c9.3-22.4,35.1-33,57.2-23.9
	c22.4,9.3,33.1,35,23.8,57.4c-1.4,3.4-75.7,190.9,14,319.4l2.1,3.4c3.6,6.1,92.6,155.2,301.2,150.2c25,0,44.2,18.8,44.7,43.1
	c0.5,24.2-18.8,44.5-42.9,44.9c-3.8,0-7.3,0-10.9,0L504.4,823z"/>
<path class="st2" d="M531.3,682.3c-175.8,0-265.9-122.5-270.6-128.8c-14.1-19.7-9.7-47.2,10-61.4c19.7-14.2,46.9-9.7,61.2,9.9
	c4.3,5.9,103,135.5,301.5,76.3c8.4-2.2,157-41.4,227.7-230.2c8.6-22.8,33.8-34.3,56.5-25.7c22.7,8.6,34.2,33.9,25.6,56.7
	c-87.6,234.3-279,282.4-287.1,284.4c-45.4,13.6-87.1,19.2-124.7,19.2L531.3,682.3z"/>
</svg>
